PathFileType	4	(x/y/z)	S02_P20_T17
DataRate	CameraRate	NumFrames	NumMarkers	Units	OrigDataRate	OrigDataStartFrame	OrigNumFrames
240	240	8	51	mm	240	43	341
Frame#	Time	Sternum			R.Acromium			L.Acromium			Top.Head			R.ASIS			L.ASIS			R.PSIS			L.PSIS			R.Great.Tro			L.Great.Tro			R.Iliac.Crest			L.Iliac.Crest			V.Sacral			R.Thigh.Upper.Post			R.Thigh.Lower.Ant			R.Thigh.Lower.Post			R.Thigh.Upper.Ant			R.Knee.Lat			R.Knee.Med			R.Shank.Upper.Post			R.Shank.Lower.Ant			R.Shank.Lower.Post			R.Shank.Upper.Ant			R.Ankle.Lat			R.Ankle.Med			R.Heel.Upper			R.Heel.Med			R.Heel.Lat			R.Toe.Lat			R.Toe.Med			R.Toe.Tip			L.Thigh.Upper.Post			L.Thigh.Lower.Ant			L.Thigh.Lower.Post			L.Thigh.Upper.Ant			L.Knee.Lat			L.Knee.Med			L.Shank.Upper.Post			L.Shank.Lower.Ant			L.Shank.Lower.Post			L.Shank.Upper.Ant			L.Ankle.Lat			L.Ankle.Med			L.Heel.Upper			L.Heel.Med			L.Heel.Lat			L.Toe.Lat			L.Toe.Med			L.Toe.Tip			Cervical.Spine			Back			
		X1	Y1	Z1	X2	Y2	Z2	X3	Y3	Z3	X4	Y4	Z4	X5	Y5	Z5	X6	Y6	Z6	X7	Y7	Z7	X8	Y8	Z8	X9	Y9	Z9	X10	Y10	Z10	X11	Y11	Z11	X12	Y12	Z12	X13	Y13	Z13	X14	Y14	Z14	X15	Y15	Z15	X16	Y16	Z16	X17	Y17	Z17	X18	Y18	Z18	X19	Y19	Z19	X20	Y20	Z20	X21	Y21	Z21	X22	Y22	Z22	X23	Y23	Z23	X24	Y24	Z24	X25	Y25	Z25	X26	Y26	Z26	X27	Y27	Z27	X28	Y28	Z28	X29	Y29	Z29	X30	Y30	Z30	X31	Y31	Z31	X32	Y32	Z32	X33	Y33	Z33	X34	Y34	Z34	X35	Y35	Z35	X36	Y36	Z36	X37	Y37	Z37	X38	Y38	Z38	X39	Y39	Z39	X40	Y40	Z40	X41	Y41	Z41	X42	Y42	Z42	X43	Y43	Z43	X44	Y44	Z44	X45	Y45	Z45	X46	Y46	Z46	X47	Y47	Z47	X48	Y48	Z48	X49	Y49	Z49	X50	Y50	Z50	X51	Y51	Z51	

43	0.175	-1009.3	1087.7	300.51	-1117.2	1327.5	441.19	-1117.9	1325	145.85	-1054.6	1614.8	291.42	-1054.9	910.73	407.16	-1041.6	915.35	196.48	-1264.6	946.99	347.73	-1275.4	959.81	274.87	-1127	794.68	493.2	-1162.4	833.43	105.17	-1157.6	954.06	463.54	-1166.2	966.42	128.61	-1294.5	905.02	301.62	-1087.4	595.74	494.38	-1016.1	524.26	474.64	-1086	505.88	480.59	-1020.8	613.7	483.66	-1063.9	432.09	475.49	-1045.9	411.09	330.71	-1254.6	360.15	449.81	-1279.6	252.21	435.55	-1311.8	312.49	438.81	-1223.1	294.43	453.44	-1376.9	239.23	426.44	-1347	239.71	344.2	-1407.7	287.46	369.26	-1422.8	265.46	335.5	-1442.2	269.96	398.32	-1381.3	117.59	439.14	-1353.9	95.084	336.43	-1314.3	63.304	396.15	-1137.4	592.65	133.14	-1045.1	531.8	139.63	-1119.1	506.73	158.41	-1072.7	620.35	116.02	-1046.5	448.94	154.82	-1044	452.43	292.01	-1135.9	287.81	157.67	-1078.8	194.28	180.3	-1145.6	216.37	174.51	-1076.4	268.07	161.42	-1138.2	99.382	196.09	-1128	96.052	277.53	-1199.8	66.006	230.18	-1191.5	41.086	263.66	-1193.1	37.927	202.14	-1027	34.28	174.38	-1006.9	44.951	284.64	-946.29	60.517	237.32	-1195.3	1391.5	294.47	-1272.9	1139.4	308.24
44	0.17917	-1004	1088.7	300.92	-1112.7	1328.5	440.98	-1112.1	1325.7	145.54	-1049.4	1615.8	290.95	-1050	911.56	407.12	-1036.4	915.69	196.23	-1259.5	948.04	347.25	-1270.3	960.87	274.39	-1121.9	795.99	493.06	-1157.8	834.12	105.1	-1152.6	954.92	463.26	-1161.1	967.16	128.23	-1289.5	906.1	301.13	-1078.9	597.62	494.76	-1006.7	527.06	475.3	-1076.3	507.8	481.03	-1012.5	616.39	484.23	-1053	434.4	475.99	-1035.1	413.55	331	-1243.3	361.64	449.08	-1267.1	253.38	434.88	-1299.9	313.54	437.86	-1211.4	296.09	453.05	-1364.6	240.23	425.22	-1334.5	240.5	343.12	-1395.8	287.85	367.48	-1410.4	265.43	333.8	-1430.1	270.24	396.55	-1368.1	118.79	438.82	-1340	95.797	336.35	-1300.9	63.975	396.51	-1134.7	593.37	132.99	-1042.8	531.74	139.65	-1117.1	507.29	158.24	-1069.6	620.54	116.05	-1045.1	448.84	154.88	-1042.9	452.29	292.07	-1135.3	288.04	157.74	-1078.4	194.27	180.24	-1145.3	216.62	174.65	-1075.8	268.06	161.4	-1138.1	99.514	196.05	-1127.9	96.201	277.5	-1199.8	66.141	230.17	-1191.4	41.26	263.65	-1193.1	38.067	202.14	-1027	34.266	174.38	-1006.9	44.938	284.63	-946.23	60.427	237.31	-1189.7	1392.3	293.83	-1267.8	1140.3	307.27
45	0.18333	-998.65	1089.6	301.34	-1108.1	1329.6	440.79	-1106.3	1326.4	145.25	-1044.2	1616.8	290.5	-1045	912.42	407.08	-1031.2	916.03	195.98	-1254.3	949.17	346.77	-1265.1	961.97	273.92	-1116.7	797.32	492.94	-1153.2	834.8	105.07	-1147.5	955.84	462.98	-1155.9	967.89	127.84	-1284.4	907.25	300.68	-1070.4	599.57	495.09	-997.28	529.95	475.88	-1066.6	509.81	481.42	-1004.3	619.16	484.73	-1042.2	436.8	476.42	-1024.4	416.13	331.25	-1232.1	362.97	448.31	-1254.5	254.39	434.19	-1287.9	314.34	436.9	-1199.7	297.63	452.61	-1352.2	240.88	424	-1321.9	241.01	342.02	-1383.8	287.84	365.72	-1397.9	264.97	332.12	-1417.8	270.04	394.8	-1354.6	119.66	438.48	-1325.7	96.27	336.22	-1287	64.602	396.8	-1131.9	594.12	132.89	-1040.6	531.69	139.72	-1115.2	507.88	158.11	-1066.6	620.74	116.13	-1043.6	448.78	154.98	-1041.8	452.19	292.19	-1134.7	288.27	157.83	-1078.1	194.28	180.19	-1145.1	216.86	174.83	-1075.3	268.07	161.4	-1137.9	99.656	196.02	-1127.8	96.358	277.47	-1199.7	66.287	230.17	-1191.4	41.445	263.65	-1193	38.217	202.14	-1027	34.255	174.38	-1006.8	44.925	284.62	-946.17	60.34	237.31	-1184.1	1393.2	293.22	-1262.6	1141.2	306.32
46	0.1875	-993.34	1090.6	301.76	-1103.6	1330.8	440.6	-1100.6	1327.2	145	-1039	1617.8	290.07	-1040	913.31	407.04	-1026	916.35	195.74	-1249.2	950.36	346.32	-1260	963.12	273.46	-1111.6	798.69	492.84	-1148.6	835.45	105.05	-1142.3	956.85	462.71	-1150.8	968.62	127.47	-1279.4	908.46	300.26	-1062	601.59	495.38	-987.94	532.91	476.37	-1057	511.9	481.77	-996.09	622	485.16	-1031.5	439.28	476.78	-1013.8	418.81	331.46	-1220.9	364.12	447.5	-1241.8	255.25	433.48	-1275.9	314.9	435.92	-1187.9	299.07	452.14	-1339.6	241.2	422.78	-1309.1	241.26	340.92	-1371.7	287.45	363.99	-1385.3	264.11	330.47	-1405.4	269.39	393.09	-1340.7	120.22	438.11	-1311.1	96.509	336.05	-1272.6	65.173	397.01	-1129.2	594.89	132.83	-1038.5	531.66	139.84	-1113.2	508.49	158.03	-1063.6	620.96	116.26	-1042.2	448.74	155.12	-1040.7	452.12	292.36	-1134.1	288.52	157.94	-1077.7	194.33	180.17	-1144.9	217.1	175.03	-1074.7	268.12	161.43	-1137.8	99.806	196	-1127.7	96.523	277.45	-1199.6	66.445	230.17	-1191.4	41.639	263.64	-1193	38.379	202.14	-1027	34.247	174.38	-1006.8	44.912	284.62	-946.1	60.255	237.3	-1178.5	1394	292.63	-1257.4	1142.2	305.37
47	0.19167	-988.05	1091.6	302.18	-1099	1331.9	440.41	-1094.8	1328	144.78	-1033.8	1618.8	289.67	-1035	914.25	406.98	-1020.8	916.68	195.5	-1244	951.62	345.88	-1254.8	964.31	273.01	-1106.5	800.07	492.77	-1143.9	836.09	105.05	-1137.1	957.94	462.43	-1145.6	969.34	127.09	-1274.3	909.74	299.88	-1053.5	603.66	495.63	-978.65	535.93	476.76	-1047.4	514.06	482.08	-987.94	624.89	485.51	-1020.8	441.81	477.07	-1003.3	421.58	331.64	-1209.6	365.09	446.66	-1229.2	255.94	432.78	-1263.9	315.23	434.93	-1176.1	300.37	451.63	-1326.9	241.18	421.58	-1296.3	241.24	339.83	-1359.6	286.68	362.31	-1372.7	262.85	328.86	-1392.9	268.29	391.43	-1326.5	120.45	437.71	-1296.2	96.52	335.82	-1257.8	65.675	397.13	-1126.5	595.68	132.8	-1036.3	531.64	140.02	-1111.3	509.13	157.99	-1060.6	621.18	116.43	-1040.8	448.73	155.3	-1039.7	452.07	292.57	-1133.6	288.79	158.08	-1077.4	194.4	180.17	-1144.8	217.34	175.27	-1074.2	268.19	161.49	-1137.7	99.966	195.98	-1127.6	96.698	277.43	-1199.6	66.616	230.17	-1191.3	41.845	263.64	-1193	38.552	202.15	-1027	34.243	174.38	-1006.8	44.899	284.61	-946.04	60.173	237.3	-1173	1394.9	292.07	-1252.3	1143.1	304.45
48	0.19583	-982.76	1092.6	302.59	-1094.3	1333.1	440.22	-1089	1328.9	144.6	-1028.6	1619.8	289.29	-1030	915.23	406.89	-1015.6	917.01	195.27	-1238.7	952.92	345.46	-1249.5	965.53	272.58	-1101.3	801.46	492.71	-1139.3	836.72	105.06	-1131.8	959.1	462.16	-1140.5	970.06	126.74	-1269.3	911.06	299.54	-1045.1	605.78	495.84	-969.42	539.01	477.06	-1037.9	516.28	482.34	-979.83	627.82	485.78	-1010.3	444.39	477.29	-992.83	424.43	331.77	-1198.4	365.87	445.8	-1216.4	256.47	432.07	-1251.9	315.32	433.96	-1164.2	301.55	451.09	-1314	240.83	420.4	-1283.3	240.96	338.75	-1347.4	285.54	360.69	-1360	261.21	327.31	-1380.3	266.76	389.83	-1312	120.38	437.3	-1280.9	96.317	335.54	-1242.7	66.104	397.16	-1123.8	596.49	132.82	-1034.2	531.64	140.23	-1109.4	509.79	157.99	-1057.6	621.4	116.64	-1039.5	448.75	155.51	-1038.7	452.04	292.83	-1133.1	289.06	158.24	-1077.1	194.5	180.18	-1144.6	217.58	175.54	-1073.8	268.29	161.57	-1137.6	100.13	195.96	-1127.5	96.884	277.41	-1199.5	66.799	230.18	-1191.3	42.06	263.64	-1192.9	38.736	202.16	-1026.9	34.241	174.38	-1006.7	44.887	284.61	-945.97	60.094	237.3	-1167.5	1395.9	291.54	-1247.1	1144.1	303.54
49	0.2	-977.49	1093.5	302.98	-1089.6	1334.3	440.04	-1083.2	1329.8	144.44	-1023.4	1620.8	288.94	-1024.9	916.25	406.78	-1010.4	917.35	195.03	-1233.5	954.27	345.07	-1244.2	966.77	272.18	-1096.1	802.86	492.66	-1134.6	837.33	105.09	-1126.4	960.35	461.87	-1135.3	970.77	126.39	-1264.2	912.43	299.25	-1036.8	607.93	496.01	-960.25	542.13	477.28	-1028.4	518.55	482.56	-971.76	630.79	485.98	-999.8	447.01	477.43	-982.44	427.36	331.87	-1187.3	366.47	444.94	-1203.6	256.84	431.36	-1239.8	315.17	432.99	-1152.2	302.6	450.53	-1301.1	240.15	419.26	-1270.2	240.43	337.69	-1335.2	284.05	359.14	-1347.2	259.21	325.83	-1367.5	264.8	388.3	-1297.1	120.01	436.87	-1265.4	95.913	335.23	-1227.1	66.456	397.11	-1121.1	597.31	132.87	-1032.1	531.65	140.49	-1107.5	510.47	158.03	-1054.7	621.64	116.89	-1038.2	448.8	155.74	-1037.7	452.03	293.12	-1132.7	289.36	158.42	-1076.8	194.62	180.21	-1144.6	217.83	175.84	-1073.3	268.42	161.66	-1137.4	100.31	195.95	-1127.4	97.08	277.4	-1199.4	66.994	230.19	-1191.2	42.286	263.64	-1192.9	38.929	202.17	-1026.9	34.242	174.39	-1006.7	44.877	284.61	-945.9	60.017	237.31	-1162	1396.8	291.02	-1241.9	1145.2	302.64
50	0.20417	-972.23	1094.5	303.37	-1084.9	1335.4	439.85	-1077.5	1330.7	144.31	-1018.1	1621.8	288.61	-1019.9	917.32	406.64	-1005.2	917.71	194.8	-1228.2	955.65	344.71	-1238.9	968.02	271.81	-1090.9	804.26	492.62	-1129.9	837.94	105.12	-1121	961.66	461.58	-1130.1	971.48	126.07	-1259.1	913.82	299	-1028.5	610.11	496.14	-951.16	545.28	477.41	-1019	520.86	482.73	-963.75	633.77	486.11	-989.44	449.64	477.51	-972.1	430.35	331.92	-1176.1	366.88	444.07	-1190.8	257.04	430.66	-1227.8	314.8	432.04	-1140.2	303.51	449.95	-1288	239.16	418.16	-1257	239.67	336.66	-1323	282.2	357.67	-1334.3	256.86	324.44	-1354.7	262.45	386.86	-1282.1	119.35	436.43	-1249.6	95.322	334.87	-1211.2	66.729	396.98	-1118.4	598.14	132.96	-1030	531.68	140.78	-1105.6	511.17	158.11	-1051.7	621.88	117.18	-1037	448.88	156	-1036.7	452.04	293.43	-1132.2	289.66	158.61	-1076.6	194.77	180.24	-1144.5	218.08	176.18	-1072.9	268.58	161.77	-1137.3	100.49	195.94	-1127.3	97.288	277.39	-1199.4	67.201	230.2	-1191.2	42.521	263.65	-1192.9	39.133	202.18	-1026.9	34.245	174.4	-1006.6	44.869	284.61	-945.83	59.942	237.31	-1156.6	1397.7	290.53	-1236.7	1146.2	301.76
